<svg id="visual" viewBox="0 0 960 540" width="960" height="540" xmlns="http://www.w3.org/2000/svg" xmlns:xlink="http://www.w3.org/1999/xlink" version="1.1"><rect x="0" y="0" width="960" height="540" fill="#b1cabe"></rect><path d="M0 363L137 323L274 343L411 342L549 317L686 338L823 392L960 326L960 541L823 541L686 541L549 541L411 541L274 541L137 541L0 541Z" fill="#3bad76"></path><path d="M0 369L137 368L274 394L411 410L549 363L686 377L823 380L960 396L960 541L823 541L686 541L549 541L411 541L274 541L137 541L0 541Z" fill="#399167"></path><path d="M0 439L137 436L274 417L411 427L549 430L686 431L823 430L960 414L960 541L823 541L686 541L549 541L411 541L274 541L137 541L0 541Z" fill="#367657"></path><path d="M0 449L137 443L274 450L411 467L549 458L686 434L823 442L960 432L960 541L823 541L686 541L549 541L411 541L274 541L137 541L0 541Z" fill="#325b47"></path><path d="M0 489L137 474L274 492L411 488L549 513L686 492L823 480L960 516L960 541L823 541L686 541L549 541L411 541L274 541L137 541L0 541Z" fill="#2c4237"></path></svg>