<svg id="visual" viewBox="0 0 900 600" width="900" height="600" xmlns="http://www.w3.org/2000/svg" xmlns:xlink="http://www.w3.org/1999/xlink" version="1.1"><rect x="0" y="0" width="900" height="600" fill="#2c4237"></rect><path d="M0 380L129 372L257 415L386 447L514 409L643 408L771 362L900 373L900 601L771 601L643 601L514 601L386 601L257 601L129 601L0 601Z" fill="#2c4237"></path><path d="M0 455L129 414L257 455L386 443L514 407L643 450L771 462L900 427L900 601L771 601L643 601L514 601L386 601L257 601L129 601L0 601Z" fill="#395648"></path><path d="M0 470L129 478L257 491L386 456L514 442L643 467L771 449L900 438L900 601L771 601L643 601L514 601L386 601L257 601L129 601L0 601Z" fill="#466b59"></path><path d="M0 489L129 519L257 538L386 514L514 494L643 504L771 539L900 528L900 601L771 601L643 601L514 601L386 601L257 601L129 601L0 601Z" fill="#54806b"></path><path d="M0 529L129 540L257 556L386 546L514 561L643 553L771 556L900 536L900 601L771 601L643 601L514 601L386 601L257 601L129 601L0 601Z" fill="#62967d"></path></svg>