<svg id="visual" viewBox="0 0 960 540" width="960" height="540" xmlns="http://www.w3.org/2000/svg" xmlns:xlink="http://www.w3.org/1999/xlink" version="1.1"><path d="M0 93L107 87L213 55L320 50L427 60L533 82L640 93L747 87L853 71L960 87L960 0L853 0L747 0L640 0L533 0L427 0L320 0L213 0L107 0L0 0Z" fill="#3bad76"></path><path d="M0 158L107 152L213 104L320 131L427 104L533 168L640 131L747 141L853 120L960 141L960 85L853 69L747 85L640 91L533 80L427 58L320 48L213 53L107 85L0 91Z" fill="#399167"></path><path d="M0 244L107 260L213 347L320 276L427 233L533 309L640 249L747 293L853 314L960 244L960 139L853 118L747 139L640 129L533 166L427 102L320 129L213 102L107 150L0 156Z" fill="#367657"></path><path d="M0 357L107 379L213 422L320 406L427 347L533 374L640 363L747 384L853 411L960 357L960 242L853 312L747 291L640 247L533 307L427 231L320 274L213 345L107 258L0 242Z" fill="#325b47"></path><path d="M0 541L107 541L213 541L320 541L427 541L533 541L640 541L747 541L853 541L960 541L960 355L853 409L747 382L640 361L533 372L427 345L320 404L213 420L107 377L0 355Z" fill="#2c4237"></path></svg>